<svg width="94" height="44" viewBox="0 0 94 44" fill="none" xmlns="http://www.w3.org/2000/svg">
<path fill-rule="evenodd" clip-rule="evenodd" d="M24.5171 36.0043C24.5171 36.0043 24.7125 36.8644 25.1947 36.5403C25.6768 36.2166 25.8722 35.7309 26.3544 35.7309C26.8365 35.7309 28.8463 35.3531 29.3284 35.7309C29.8105 36.1088 29.8588 35.7846 30.0998 35.7846C30.3409 35.7846 31.0491 35.9103 31.0491 35.9103C31.6654 35.8461 31.5398 34.8663 31.0943 34.5796C30.4513 34.076 29.5856 33.7524 28.9427 33.2482C28.8783 32.7625 28.8141 32.2768 28.7498 31.7911C28.9266 31.5396 29.1033 31.2875 29.2802 31.0355C29.2802 30.2263 29.2802 29.4167 29.2802 28.6072C29.1838 28.3913 29.0873 28.1754 28.9909 27.9595C28.9587 27.348 28.9266 26.7364 28.8944 26.1247C28.8141 26.0167 28.7337 25.9088 28.6534 25.8009C28.6534 25.5671 28.6534 25.3332 28.6534 25.0993C28.8141 24.8655 29.1397 24.6317 29.3005 24.3978C29.3487 23.948 29.1332 23.6306 29.1814 23.1808C29.0689 22.6052 29.0552 21.8973 28.9427 21.3216C28.9427 20.62 28.9427 19.9184 28.9427 19.2169C29.4091 19.0779 29.5221 18.8712 29.5554 18.662C29.5982 18.3929 29.4664 18.076 29.3284 17.4359C29.2641 14.072 29.2328 10.5757 29.1686 7.2117C29.4251 6.80967 29.7325 6.6017 29.739 6.30385C29.744 6.07195 29.495 5.87862 29.1838 5.61711C29.1838 5.38326 29.1838 5.14953 29.1838 4.91551C29.1838 4.91551 29.7142 3.83612 30.148 3.83612C30.582 3.83612 30.8713 3.51239 30.8713 3.18861C31.2673 2.40193 30.4374 2.32509 30.4374 2.32509C29.519 2.30603 28.4787 2.35304 27.5828 2.33415C26.7925 2.31732 26.1438 2.23409 25.3748 2.21715C25.0373 2.23526 24.6997 2.25309 24.3622 2.27109C23.5327 2.52299 23.7071 2.97343 24.0247 3.22506C24.4104 3.46785 24.7395 3.74596 25.1819 3.75524C25.7217 3.76647 26.1514 3.94337 26.339 4.48373C26.3873 6.64244 26.4355 8.80121 26.4836 10.9599C26.4998 12.5519 26.5489 14.1441 26.5648 15.7359C26.5809 17.3278 26.5642 18.92 26.5801 20.512C26.6122 22.383 26.6444 24.2538 26.6766 26.1247C26.6766 26.1247 26.5801 26.8263 26.4355 26.9882C26.2909 27.1501 26.339 28.5532 26.339 28.5532C26.873 29.0184 26.7595 28.9533 26.3873 29.5786C26.355 30.9639 26.3229 32.3489 26.2909 33.7339C26.1623 33.986 26.0337 34.2381 25.9051 34.4896C25.9051 34.4896 24.5171 35.3028 24.5171 36.0043ZM1.16719 42.7129C0.452231 42.5659 0.318176 42.22 0.572126 42.016C0.724521 41.8936 1.13191 41.898 1.31505 41.8125C1.58307 41.6862 1.85683 41.5208 2.01819 41.3212C2.29396 40.9797 2.12667 40.1894 2.45576 39.5456C2.772 36.8292 2.86673 33.2303 2.55067 32.0197C2.36091 30.1539 2.5557 23.9564 2.5557 23.1709C2.76568 22.7936 2.84449 22.7627 2.84611 22.1015C2.84667 21.843 3.02055 21.4408 2.83533 21.1212C2.56666 20.8144 2.64786 19.6152 2.62684 18.9391C2.59577 17.9329 2.66961 17.9411 2.94963 17.0294C3.05504 16.6865 3.09075 16.2784 2.94963 15.9495C2.72147 15.418 2.3916 16.0321 2.41356 14.9647C2.46739 12.3744 2.56398 9.76836 2.49585 7.17912C2.5106 6.9484 2.89485 6.90626 2.97008 6.68817C3.06571 6.41089 3.0974 6.06794 2.97008 5.80458C2.89798 5.65529 2.49443 5.84946 2.37606 5.73633C1.65259 5.04506 0.743495 4.61084 0.324273 3.68851C0.161779 3.3308 0.423853 2.53921 0.768331 2.36812C1.33902 2.08458 2.40054 2.37768 3.02497 2.26998C3.36076 2.21213 3.57326 2.01232 3.91342 1.99734C6.56655 1.88047 9.2967 1.61525 11.9403 1.87716C12.3635 1.91908 12.503 2.66563 12.8887 2.85097C13.4174 3.10505 14.1906 3.05061 14.5959 3.48422C15.2455 4.17895 15.7116 4.75129 15.794 5.71436C15.8952 6.89625 16.0983 8.23492 16.0883 9.14277C16.0799 9.90301 15.8515 10.5892 15.5125 11.2431C15.0483 12.1392 14.4957 12.9756 13.8973 13.8608C13.5523 14.371 12.9383 14.8447 12.7939 15.4265C12.6446 16.028 14.1985 15.5864 14.5164 16.113C14.8219 16.6193 14.2557 17.2125 14.4265 17.783C14.579 18.2918 15.4601 18.3413 15.5646 18.8629C15.8345 20.2091 15.239 21.6327 15.4698 22.9865C15.5436 23.42 16.2314 23.4355 16.2983 23.8703C16.3794 24.8097 16.3504 25.8041 16.3577 26.8022C16.3654 27.8645 16.4066 28.9316 16.393 29.9414C16.3669 30.3221 15.8685 30.5448 15.824 30.9231C15.7053 31.9309 16.0515 33.0688 15.829 34.057C15.5946 35.0977 14.7579 35.8326 14.4315 36.8465C14.1488 37.7246 14.229 39.0068 13.7727 39.5573C13.0182 39.7943 12.079 40.3252 11.4846 40.7679C10.6161 41.414 10.0609 42.1546 9.79391 42.178C9.45465 42.4799 8.73694 42.2781 8.3163 42.4352C7.92841 42.5794 7.89185 42.9046 7.48283 42.8515C7.15983 42.8102 7.26051 42.5419 7.0086 42.329C6.86194 42.2043 6.57991 42.1965 6.43957 42.329C5.58823 43.0142 6.22321 42.8348 5.25651 42.7454C4.27449 42.6548 2.36264 42.9578 1.16719 42.7129ZM6.66861 38.772C6.88994 38.3467 7.11128 37.9213 7.33267 37.4954C7.26928 36.0886 7.20613 34.6813 7.14286 33.2739C7.33267 33.0118 7.5223 32.7502 7.71194 32.4881C7.71194 31.0707 7.71194 29.6533 7.71194 28.2357C7.71194 27.5913 7.62212 26.9469 7.62212 26.3027C6.95634 25.752 7.27469 25.76 7.81176 25.1246C7.81176 24.5028 7.96172 24.0012 7.96172 23.3793C7.89834 22.8558 7.83518 22.332 7.77191 21.8084C7.86687 21.5467 7.96171 21.2848 8.05651 21.023C8.05651 20.2355 8.14633 19.5983 8.14633 18.8107C8.14633 18.0713 8.16774 17.8235 8.30294 17.8699C8.43814 17.9162 8.6873 18.2568 9.14221 18.6942C9.48784 19.0266 9.8337 19.3591 10.1794 19.6914C10.8181 20.3051 11.44 20.361 11.1812 21.3666C10.9393 22.3075 11.6345 22.5685 11.4185 23.5021C11.2534 24.2152 11.0364 24.6512 11.0845 25.0933C11.1132 25.3585 11.2375 25.626 11.5251 25.9568C11.791 26.2624 11.8796 26.2433 11.7207 26.6195C11.4742 27.2024 11.2642 27.5423 11.2395 27.8922C11.2078 28.3419 11.4528 28.5486 11.6676 29.3429C11.8435 29.9926 11.827 30.4234 11.6643 31.0751C11.4716 31.8481 11.279 32.6211 11.0862 33.3941C11.0646 33.9787 11.0113 34.5639 10.9698 35.1491C10.9069 36.0406 10.7881 36.0635 10.1682 36.7007C9.60504 37.2797 8.88024 37.7749 8.33692 38.2925C7.73631 38.5216 7.26928 38.5428 6.66861 38.772ZM8.11967 13.9645C8.60084 13.9787 8.81603 14.0263 8.96521 13.9649C9.11444 13.9033 9.19776 13.7325 9.41541 13.3104C9.69649 12.7646 10.1128 12.0824 10.4581 12.0311C11.0398 11.9448 11.3433 11.8582 11.3433 11.8582C11.3433 11.8582 11.6478 11.8005 11.5437 11.0503C11.4394 10.3001 11.2247 9.57861 11.4139 9.37667C11.603 9.17473 11.6429 8.59766 11.4417 8.36677C11.2406 8.13605 11.0494 7.9051 11.3743 7.58775C11.6992 7.27034 11.9232 6.73897 11.1468 6.8256C10.3705 6.91218 10.3801 6.57616 10.2904 6.34521C10.2006 6.11443 9.35376 6.16714 8.91098 6.14171C8.46866 6.22828 8.09671 6.19939 8.10945 6.661C8.12236 7.12261 8.04797 9.34789 8.05434 9.57872C8.06071 9.80956 8.11967 13.9645 8.11967 13.9645ZM32.6773 34.2202C32.6427 34.4164 32.1924 34.4175 32.227 34.6142C32.2754 34.8887 32.2934 35.3173 32.5699 35.3531C33.3719 35.4571 34.4714 35.1379 35.2667 35.2849C35.5808 35.343 35.5979 35.8785 35.8859 36.0165C36.1224 36.0126 36.4865 36.021 36.7866 36.0165C37.0175 35.8964 36.9554 35.4727 37.1806 35.3414C37.4579 35.1793 37.8361 35.1178 38.1375 35.2285C38.2998 35.2883 38.0783 35.7147 38.2501 35.7354C39.6531 35.6823 40.9065 35.836 42.2339 35.7354C42.499 35.6918 42.2289 35.3123 42.4461 35.1547C42.6929 34.9753 43.3051 35.2883 43.3467 34.9859C43.5623 33.4226 43.2258 31.6771 43.3726 30.1063C43.4196 29.6033 43.9021 29.3052 44.01 28.8116C44.0459 28.6472 44.243 28.6443 44.2586 28.4824C44.3133 27.9186 44.3033 27.2349 44.1607 26.6798C43.9715 26.4859 43.3934 26.4153 43.2037 26.5036C42.99 26.661 43.1843 27.2196 43.0409 27.4427C42.9699 27.5532 42.7172 27.332 42.6468 27.4427C42.5777 27.5516 42.6671 27.7302 42.6988 27.8714C42.7178 27.9561 42.716 28.0274 42.6468 28.0619C42.2777 28.2465 41.7341 27.8086 41.4084 28.0619C41.0888 28.3105 41.4477 28.7916 41.1773 29.093C40.7389 29.5816 39.7996 29.8678 39.363 30.3579C38.8438 30.9405 38.8901 31.5351 38.2935 32.0382C37.8265 32.4317 37.0329 32.473 36.467 32.7027C35.811 32.9693 35.4978 33.4606 34.8164 33.6523C34.6105 33.7105 34.3593 33.3505 34.4223 33.1459C34.9329 31.491 35.5963 29.8271 36.1475 28.1851C36.501 27.1317 36.667 26.4672 37.049 25.4235C37.4443 24.3435 37.9606 23.0086 38.6061 22.0567C38.7332 21.8691 39.1573 21.9916 39.2253 21.7752C39.394 21.2383 39.0783 20.6298 39.2253 20.0865C39.334 19.6844 39.7573 19.2985 40.1077 19.0732C40.3444 18.9211 40.7221 19.1331 40.8266 18.8718C41.0706 18.262 40.8426 17.6159 40.9963 16.9772C41.0998 16.547 41.3953 16.2833 41.5835 15.8825C41.833 15.3506 41.8148 14.8889 42.0901 14.3698C42.3142 13.9475 42.7858 13.3564 42.9216 12.8978C43.1081 12.2681 42.9552 11.959 43.0159 11.3049C43.0322 11.1289 43.2902 11.0314 43.2974 10.8546C43.3848 8.73633 43.4969 6.61052 43.3726 4.49385C43.3625 4.32136 42.9751 4.32881 42.9785 4.1561C42.992 3.50927 43.0705 2.93777 43.0348 2.35482C43.028 2.24091 43.0674 2.14762 42.9535 2.14287C41.1908 2.06893 39.451 2.10907 37.6872 2.12963C36.2425 2.14635 34.7941 2.03054 33.3528 2.12963C33.1347 2.14461 32.9393 2.18211 32.7899 2.34157C32.6465 2.49454 32.5754 2.82101 32.5837 3.03027C32.6217 3.97098 32.5648 4.99515 32.5837 6.12629C32.5871 6.33588 33.0001 6.21046 33.0713 6.40776C33.2698 6.95729 33.285 7.57036 33.2402 8.15276C33.2259 8.33988 32.9984 8.59184 33.0029 8.77919C33.0933 9.43038 33.1776 9.89059 33.2965 10.517C33.3649 10.7592 33.5733 10.9484 33.6343 11.1925C33.707 11.4842 33.441 12.0736 33.7408 12.0931C33.8404 12.0995 34.1879 12.1576 34.366 12.0931C34.5951 12.0101 34.2818 11.5902 34.366 11.3613C34.4257 11.1991 34.7327 11.1942 34.7601 11.0236C34.9089 10.0967 34.6503 9.01057 34.7973 8.08322C34.8421 7.80063 35.0041 7.50212 35.2476 7.3515C35.4548 7.22322 35.8297 7.54393 35.9794 7.3515C36.187 7.0845 35.9828 6.77693 36.1111 6.46405C36.2948 6.0163 36.5936 5.60341 36.9554 5.28192C37.2877 4.98653 37.6201 4.63303 38.0622 4.58703C39.0506 4.48435 40.2329 4.57651 41.5713 4.51889C41.6968 4.5133 41.7305 4.70624 41.7401 4.83161C41.7875 5.44893 41.8999 6.28765 41.7401 6.68923C41.5084 7.27207 40.984 7.9226 40.4516 8.5279C40.0874 8.94178 39.7193 9.30809 39.4382 9.72297C39.1014 10.2204 39.6047 10.8986 39.4322 11.474C39.2557 12.0625 38.7736 12.6881 38.3999 13.1759C38.0934 13.5761 37.6429 13.7809 37.3556 14.1951C36.9968 14.7121 36.7879 15.2213 36.5614 15.8084C36.373 16.2965 36.2516 16.8117 36.1673 17.3282C36.1008 17.7361 36.2957 18.1972 36.1111 18.5666C35.9757 18.8373 35.6705 18.7873 35.4736 19.0169C35.2006 19.3355 35.0407 19.7439 34.9107 20.1428C34.7567 20.6151 34.7441 20.895 34.5037 21.3296C34.2339 21.8172 33.6925 22.2882 33.4472 22.7884C33.1795 23.334 33.1489 23.997 33.0151 24.5898C32.8857 25.163 32.7775 25.7029 32.6591 26.2785C32.5141 26.9829 32.3628 27.6986 32.3776 28.4176C32.3821 28.6363 32.6135 28.7869 32.7154 28.9804C32.8014 29.1439 32.9989 29.3118 32.9405 29.4871C32.8608 29.7265 32.4133 29.7438 32.3776 29.9937C32.3408 30.2517 32.4065 30.49 32.5959 30.6694C32.7606 30.8247 33.0969 30.7571 33.2151 30.9505C33.3424 31.159 33.3195 31.4619 33.2151 31.6821C33.1283 31.866 32.8236 31.8213 32.7838 32.0203C32.622 32.8301 32.8207 33.407 32.6773 34.2202ZM81.4833 42.1976C81.3777 41.8623 81.6415 41.7969 81.817 41.6219C82.0736 41.3659 82.3217 41.1161 82.4234 40.612C82.462 40.4208 82.6576 40.1117 82.7029 39.8054C82.7694 39.3583 82.6677 38.8922 82.5458 38.6032C82.386 38.2248 82.1239 38.0275 82.2189 37.6665C82.2524 37.4356 82.7745 37.4071 83.1858 37.2244C83.4016 37.1288 83.5866 36.9416 83.6553 36.7655C83.7453 36.5336 83.4457 36.5732 83.2931 36.2787C83.1305 35.9651 83.1065 35.4956 82.9813 35.262C82.7627 34.8551 82.3631 34.309 82.3485 33.8468C82.3094 32.6138 82.6666 31.3691 82.7124 30.1828C82.751 29.1881 82.9863 28.951 82.9103 27.9317C82.8728 27.4241 82.6001 27.0548 82.3184 26.5366C82.0853 26.1072 81.779 25.6822 81.6616 25.2771C81.4532 24.5562 81.6628 23.7017 81.5364 22.9621C81.5118 22.8171 81.1486 22.6397 81.1351 22.4931C81.0412 21.4777 81.1558 20.4379 81.0904 19.4335C81.0569 19.2445 80.9037 19.2085 80.8859 19.0175C80.8328 18.4545 80.8853 17.9062 80.8836 17.4196C80.882 16.9901 80.8227 16.6231 80.8227 16.124C80.8227 15.938 80.6684 15.8105 80.6623 15.6245C80.6248 14.5263 80.6707 13.3137 80.6562 12.2137C80.6405 11.0428 80.569 9.98428 80.6623 8.81826C80.6785 8.62169 81.0759 8.62643 81.0681 8.42947C81.0312 7.53598 80.9541 7.18063 80.9747 6.28195C80.977 6.17827 81.1894 5.93732 81.1977 5.83392C81.2598 5.08625 81.3526 4.33786 81.162 3.69801C81.0245 3.23455 80.6768 3.09018 80.2778 2.79122C79.9256 2.52713 79.5327 2.09783 79.2069 1.85722C78.7899 1.54909 78.5121 1.30126 78.1964 0.839815C78.0063 0.562089 78.3199 0.537835 78.6698 0.527607C79.1191 0.514472 79.6099 0.553711 80.0374 0.620669C80.1822 0.643305 80.4544 0.892748 80.5913 0.945789C80.9211 1.07367 81.1368 0.90762 81.4744 1.01298C81.7321 1.09352 82.808 1.65444 83.0975 1.82128C83.4932 2.04921 83.6212 2.38042 84.0343 2.57403C84.1086 2.60885 85.3846 2.97409 85.5327 3.01115C85.8781 3.09739 86.0928 2.84483 86.4382 2.93107C86.8395 3.03111 87.5532 3.23326 88.0037 3.36813C88.2574 3.44403 88.4178 3.74396 88.6777 3.79571C89.9381 4.04722 89.7129 3.62709 90.7111 4.62515C91.0051 4.91925 91.4908 5.15544 91.7099 5.50885C92.0195 6.00757 92.0519 6.61886 92.2487 7.1624C92.4018 7.585 92.7439 7.93215 92.8249 8.38118C93.0435 9.58962 92.8154 10.8462 92.9635 12.0653C93.0088 12.4376 93.3917 12.8304 93.4319 13.2034C93.5845 14.6315 93.6102 16.0416 93.4364 17.4671C93.3777 17.9476 92.973 18.1431 92.9009 18.6217C92.7808 19.4247 93.0205 20.247 92.9635 21.057C92.9367 21.4449 92.7209 21.8498 92.5175 22.1809C92.3688 22.422 92.029 22.5089 91.92 22.77C91.6333 23.4552 91.7054 24.3921 91.5724 25.1345C91.531 26.5517 91.5601 27.6511 91.621 29.0674C91.664 30.0656 91.7663 30.9617 91.6389 31.9527C91.5942 32.2958 91.3069 32.4842 91.2555 32.8268C91.1135 33.7736 91.2354 34.7461 91.1437 35.6991C91.128 35.8612 90.8877 36.049 90.8536 36.2083C90.7899 37.0791 90.729 38.35 90.3495 39.3304C90.0996 39.977 89.4921 40.6287 88.9086 41.0032C88.3435 41.3659 87.736 41.4442 87.0848 41.6102C86.6735 41.7147 86.2129 41.6644 85.8362 41.8595C85.6104 41.9768 85.7619 41.9785 85.5556 42.1261C85.4366 42.2105 85.2309 42.2178 85.1185 42.1261C84.9598 41.9959 85.009 41.9427 84.824 41.855C84.5417 41.7214 84.174 41.732 83.8873 41.855C83.6805 41.9439 83.7559 42.1054 83.5346 42.1484C83.088 42.2356 82.5649 42.3485 82.082 42.3357C81.793 42.3284 81.5649 42.4586 81.4833 42.1976ZM85.6747 10.1313C86.3018 10.0981 86.4247 10.0641 86.9831 10.364C87.5605 10.6736 87.6812 10.8778 88.0339 11.4372C88.2161 11.6127 88.3977 11.7883 88.5794 11.9637C89.3211 12.6796 89.6709 13.69 89.9739 14.6367C90.0236 15.6646 90.2444 17.4653 89.7313 18.3979C89.4753 18.8635 89.3741 19.2228 89.3306 19.6179C89.2093 20.7232 88.8957 20.5506 88.5766 21.3877C88.4899 21.6147 88.5089 21.8972 88.5011 22.4361C88.4732 24.3603 88.4447 26.2847 88.4167 28.2089C88.3988 29.4383 88.1674 30.0249 87.6706 31.1601C87.3788 31.7028 87.2257 32.0527 87.2257 32.6686C87.2257 33.3986 87.0764 33.7351 86.7864 34.4002C86.6097 34.8048 86.4326 35.21 86.2559 35.6152C86.0463 36.0953 85.8541 36.2675 85.7149 36.2032C85.5757 36.1395 85.4897 35.8382 85.4919 35.3721C85.5042 33.023 85.5165 30.6744 85.5288 28.3253C85.5556 25.8278 85.5825 23.3303 85.6093 20.833C85.578 20.2966 85.5981 20.1778 85.246 19.78C85.213 18.9716 85.0571 18.6059 84.8011 17.8361C84.478 17.2292 84.5149 16.7864 84.5071 16.0926C84.487 14.3569 84.4663 12.6209 84.4462 10.8851C84.4339 9.82001 84.6748 10.1841 85.6747 10.1313ZM44.7417 39.9938C44.5485 39.0492 44.6836 38.2986 44.7343 37.5882C44.7584 37.4189 45.1001 37.577 45.1929 37.434C45.3314 37.2199 45.4565 36.9265 45.365 36.6884C45.3101 36.5458 45.2129 36.7426 45.1309 36.6135C45.0176 36.4357 45.0574 36.1484 45.1882 35.983C45.379 35.741 45.7607 35.8036 45.8911 35.5241C46.0689 35.143 45.7637 34.6634 45.8911 34.2627C45.9316 34.1352 46.261 34.3929 46.2924 34.2627C46.441 33.6495 46.2562 32.9945 46.3498 32.3707C46.3741 32.2081 46.5177 32.1326 46.5366 31.9694C46.6161 31.2859 46.6576 30.5827 46.5366 29.9052C46.4615 29.4846 46.1217 29.1818 46.0631 28.7586C45.8503 27.2234 45.7859 25.5518 45.9835 24.0145C46.1369 22.8211 46.8978 20.9755 47.3446 19.8582C47.6242 19.1592 47.7612 19.3772 48.0125 18.6675C48.0892 18.4505 48.1425 18.1977 48.0698 17.9794C47.9793 17.7075 47.6584 17.4997 47.7035 17.2166C47.7589 16.8698 48.1854 16.8785 48.2992 16.546C48.4538 16.0941 48.1426 15.564 48.2992 15.1127C48.4834 14.5816 49.1181 14.2767 49.2739 13.7366C49.4225 13.2213 49.2632 12.398 49.4087 11.8817C49.6965 10.8616 50.0421 10.2027 50.5353 9.26443C50.8265 8.71044 51.3325 8.24236 51.5599 7.65901C51.7791 7.09696 51.7567 6.35286 51.854 5.88164C51.4957 5.43372 50.6734 6.05887 50.1339 5.86409C49.8602 5.76533 49.8612 5.31782 49.5903 5.21112C49.01 5.17166 48.4553 5.15829 48.0422 5.4681C47.4881 5.8836 47.4837 6.3707 47.2671 7.02832C46.9435 8.01095 47.1902 9.11492 46.7862 10.0671C46.6264 10.4436 45.9747 10.5495 45.6618 10.8125C45.4961 10.9515 45.4192 11.0965 45.203 11.0965C44.9868 11.0965 44.7983 11.0218 44.7443 10.8125C44.6346 10.387 44.7657 9.93285 44.7443 9.49376C44.7275 9.14813 44.5424 8.79657 44.6297 8.46172C44.6752 8.28729 45.0744 8.35485 45.0884 8.17505C45.2598 6.20509 45.0242 4.24781 45.0543 2.36538C45.0648 1.70446 45.2402 1.80244 45.8908 1.79585C46.9867 1.78456 48.7236 1.79304 49.9832 1.78667C52.1932 1.77561 54.4088 1.69312 56.6126 1.75348C56.9407 1.77723 57.3677 1.89902 57.3906 2.22699C57.437 2.89021 56.9927 3.52971 56.6853 4.11909C56.5226 4.43058 56.1593 4.6342 56.0397 4.96424C55.8363 5.52366 56.0571 6.18653 55.8424 6.74165C55.7111 7.08231 55.0432 7.14531 54.9152 7.48703C54.7335 7.97044 55.0471 8.55466 54.8576 9.03505C54.7637 9.2736 54.2551 9.13734 54.1696 9.37907C53.8812 10.1972 54.0505 11.1213 53.8259 11.9592C53.7012 12.4217 53.3508 12.746 53.2876 13.2206C53.1155 14.5088 53.3994 15.8247 53.2876 17.1194C53.263 17.4005 52.9662 17.5944 52.8858 17.8648C52.6968 18.5006 52.5778 19.1876 52.3598 19.8142C52.2659 20.0848 51.9171 20.2252 51.8439 20.5022C51.7363 20.9087 52.006 21.3758 51.8439 21.7636C51.6398 22.2512 50.9215 22.4506 50.8118 22.9677C50.5023 24.4269 50.9924 25.9656 50.7646 27.4398C50.6627 28.0995 50.0812 28.6179 49.9619 29.2745C49.8081 30.1206 50.073 31.121 49.8621 31.9543C49.6586 32.7592 49.0753 33.4567 48.7828 34.233C48.7143 34.9949 47.8015 35.694 48.2992 36.2697C48.8995 36.3491 49.8959 36.4715 50.5926 36.1546C50.9133 36.0093 50.5419 35.3363 50.8219 35.1228C51.678 34.4689 52.6605 34.233 53.6213 33.7468C54.1707 33.4684 54.8615 33.203 55.3517 32.8296C55.6004 32.6396 55.6289 32.1885 55.9246 32.084C56.1029 32.0208 56.1398 32.4534 56.3259 32.4853C56.9664 32.5943 57.522 32.3204 58.1508 32.4853C58.4023 32.5513 58.3944 32.8894 58.4598 33.1409C58.5185 33.3661 58.6203 33.6087 58.4951 33.8038C58.4196 33.9212 58.1463 33.7904 58.0932 33.9189C57.9842 34.1839 58.0267 34.5002 58.0932 34.7786C58.1457 34.9954 58.3442 35.1301 58.3626 35.352C58.461 36.514 58.4934 37.6911 58.3626 38.8497C58.3352 39.0928 58.1972 39.3477 57.954 39.3728C56.3002 39.2968 54.7716 39.4181 53.1155 39.4232C52.945 39.4081 53.0428 39.1062 52.8858 39.0392C52.4587 38.8559 51.6887 38.8307 51.2355 38.9347C50.7083 39.0554 50.6642 39.4891 50.1339 39.5947C49.1782 39.7859 48.0736 39.5986 47.11 39.7445C46.7694 39.7959 46.5092 40.0849 46.1751 40.1682C45.7115 40.2839 44.9805 40.4074 44.7417 39.9938ZM19.2024 42.6867C18.4874 42.9376 17.6533 42.6872 16.8955 42.7034C16.6619 42.7085 16.2818 42.8918 16.0574 42.8258C15.8125 42.7543 15.4266 42.2686 15.5797 42.064C16.1778 41.2665 17.3569 41.167 17.9029 40.3336C18.2241 39.8434 17.9233 39.1834 18.0613 38.6138C18.1036 38.4389 18.4101 38.4551 18.5008 38.2997C18.5745 38.1734 18.5961 37.9716 18.5008 37.8604C18.283 37.6061 18.1451 38.1393 18.0592 37.3781C17.9823 36.6973 17.9662 36.0059 18.0293 35.3257C18.069 34.8925 18.3839 34.9842 18.4434 34.7556C18.5543 34.3303 18.3237 34.0151 18.4379 33.5903C18.489 33.3997 18.8423 33.4477 18.9402 33.2762C19.0335 33.113 19.0446 32.8682 18.9402 32.7111C18.7263 32.3903 18.1449 32.3953 18.0802 32.0152C17.961 31.316 18.0248 30.5654 18.0371 29.8717C18.0503 29.1329 17.9995 28.3919 18.0611 27.6391C18.0725 27.4995 18.3887 27.5054 18.4379 27.3741C18.5333 27.1195 18.4729 26.8276 18.4379 26.5578C18.4098 26.3414 18.4763 25.8986 18.4597 25.681C18.4343 25.3466 18.2906 25.2224 18.446 24.9253C18.5544 24.7182 18.9077 24.8429 18.9402 24.6113C19.112 23.3885 18.7453 22.1346 18.8774 20.9067C18.8998 20.6987 19.2273 20.7318 19.2824 20.5299C19.371 20.2044 19.3984 19.8302 19.2542 19.5253C19.1861 19.3814 18.8652 19.3808 18.8528 19.222C18.7118 17.4277 18.9571 15.7313 18.8146 13.9369C18.8013 13.7689 18.3886 14.0046 18.3809 13.2753C18.3724 12.5111 18.302 11.7987 18.3123 11.2369C18.3203 10.8059 19.2503 10.7943 19.2405 10.3632C19.2255 9.70638 19.329 8.96508 19.1776 8.29114C19.129 8.07445 18.8463 8.11028 18.7518 7.90901C18.6629 7.71999 18.7468 7.53147 18.8282 7.33858C18.9259 7.10646 19.1914 6.95996 19.2542 6.71599C19.3691 6.27031 19.3576 5.78333 19.2542 5.33463C19.2203 5.1878 18.9669 5.04434 18.8964 4.91109C18.766 4.6645 18.825 4.44685 18.6508 4.22887C18.5304 4.07846 18.1749 4.17086 18.0284 4.04583C17.6514 3.7239 17.434 3.36595 17.1179 3.07274C16.8206 2.79736 16.42 2.58984 16.191 2.1844C16.0438 1.92395 16.2153 1.4734 16.4531 1.29153C16.6357 1.15191 16.9218 1.18349 17.1247 1.29153C17.2897 1.3795 17.2864 1.72989 17.4714 1.75554C18.2807 1.86828 19.084 1.51203 19.882 1.68742C20.2299 1.76394 20.2485 2.20336 20.5728 2.35052C20.7897 2.44906 21.1807 2.25858 21.3781 2.39193C21.6678 2.58772 21.9137 3.00427 22.1421 3.2369C22.4357 3.53597 22.6888 3.66911 22.8388 4.0926C23.028 4.62732 22.9451 5.17596 22.9368 5.73214C22.9294 6.22287 23.0093 6.71985 22.9643 7.21835C22.9492 7.38602 22.6271 7.30711 22.5821 7.46948C22.503 7.75453 22.5595 8.07361 22.7077 8.32943C22.8154 8.51572 23.1071 8.42087 23.1773 8.62421C23.3409 9.0994 23.3618 9.6819 23.24 10.1695C23.1948 10.351 22.8444 10.2341 22.8332 10.4207C22.6922 12.7817 22.657 15.1631 22.896 17.516C22.9365 17.9159 23.5688 18.0583 23.6113 18.4579C23.8483 20.6849 23.6325 22.939 23.5404 25.1764C23.5274 25.4947 23.3697 25.8947 23.24 26.1321C23.0949 26.3976 23.1851 26.6628 23.1906 26.9557C23.1977 27.3324 23.1526 27.7431 23.21 28.1276C23.2427 28.3472 23.6894 28.5562 23.6741 28.7778C23.6318 29.3882 23.7186 29.6767 23.7559 30.2785C23.7739 30.5682 23.2463 30.7493 23.0789 30.9863C22.9586 31.1568 22.8853 31.4871 22.9834 31.6715C23.0759 31.8453 23.2421 31.757 23.2947 31.9471C23.3691 32.2159 23.3753 32.4428 23.24 32.6871C23.1527 32.8441 22.831 32.8234 22.8005 33.0006C22.715 33.4975 22.9971 34.0089 22.9261 34.508C22.9048 34.6573 22.5716 34.6097 22.5493 34.759C22.4377 35.504 22.6756 36.2764 22.5493 37.0192C22.5016 37.2998 22.0671 37.4261 22.047 37.7101C22.0357 37.8688 22.4115 37.7581 22.4865 37.8984C22.605 38.1209 22.3076 38.5814 22.5493 38.6519C23.3527 38.8872 24.3469 38.8262 25.1565 38.6138C25.615 38.4931 25.8091 37.8503 26.2813 37.8056C26.8501 37.752 27.2698 38.1276 27.832 38.2282C28.5733 38.3618 29.3842 38.3858 30.1115 38.1902C30.5407 38.0745 30.79 37.619 31.2308 37.5603C33.139 37.3037 34.9099 37.4613 36.8353 37.4513C38.6559 37.4412 40.9849 37.3495 42.3365 37.4971C43.1074 37.5228 42.2715 40.2498 42.5495 41.6901C42.6099 42.0037 42.8778 42.1792 43.0388 42.4692C43.2956 42.932 43.3951 43.1673 42.7284 43.1645C41.4744 43.1584 40.2055 43.2551 38.8448 43.1975C38.5775 43.1864 38.5904 42.671 38.3425 42.5693C38.0708 42.4581 37.7487 42.7012 37.4634 42.6324C37.0358 42.529 36.554 42.1194 36.1176 42.0674C34.9539 41.9277 33.7812 42.2194 32.6204 42.059C32.357 42.0227 32.3207 41.5129 32.0553 41.4934C29.3418 41.295 26.7418 41.58 24.0256 41.4319C23.4438 41.4001 23.3908 41.1972 23.0215 41.0899C22.4989 40.9389 21.5645 40.8786 21.0723 41.1094C20.155 41.5387 20.158 42.3508 19.2024 42.6867ZM51.8669 32.0773C51.3 32.0605 51.2623 31.15 51.3073 30.5917C51.3534 30.0205 52.0994 30.0504 52.3654 29.5431C52.5593 29.1737 52.2687 28.5243 52.49 28.1704C52.7281 27.7894 53.3737 27.8035 53.6118 27.4225C53.7482 27.2047 53.5447 26.7871 53.5509 26.5303C53.566 25.9224 53.7023 25.4745 53.6744 24.8671C53.6599 24.5512 53.5285 23.9805 53.5883 23.6699C53.6705 23.2457 53.9231 23.3487 54.0483 22.935C54.2042 22.4176 53.9449 21.8289 54.1103 21.3146C54.1763 21.1111 54.7095 21.2132 54.6715 21.0029C54.6251 20.747 54.1584 20.8847 54.112 20.6289C53.9706 19.85 53.9628 18.9335 54.1729 18.1703C54.3043 17.693 54.8459 17.3277 54.9834 16.8518C55.127 16.353 54.823 15.7875 54.9834 15.2936C55.0918 14.9583 55.6457 14.8875 55.7312 14.5457C55.9324 13.7394 55.753 12.7503 55.9626 11.9462C56.0727 11.5242 56.2929 11.0459 56.5629 10.7814C56.725 10.6226 56.8708 10.5072 56.9468 10.257C57.0508 9.91429 56.7954 9.62606 56.8541 9.27266C56.9061 8.96 57.1447 8.7593 57.2962 8.48124C57.4879 8.13012 57.5678 7.68528 57.7517 7.33048C58.02 6.81175 58.381 6.37779 58.5733 5.82592C58.7169 5.41444 58.4084 4.74329 58.5923 4.34786C58.8528 3.78793 59.5257 3.80174 59.7822 3.23991C59.9896 2.78607 59.6269 2.19289 59.8448 1.74408C60.003 1.41712 60.3602 1.27276 60.7229 1.25834C60.9889 1.24777 61.312 1.43187 61.4025 1.68171C61.5808 2.17126 61.4199 2.75952 61.6216 3.23991C61.9754 4.08472 62.5891 4.58266 62.9295 5.43317C63.1067 5.87661 62.915 6.51428 63.0234 6.97947C63.171 7.61188 63.2744 8.24967 63.4834 8.86554C63.7427 9.63249 64.1144 10.3764 64.3324 11.1553C64.5252 11.8451 64.5716 12.5936 64.7203 13.2957C64.8293 13.808 65.0282 14.2784 65.2049 14.7703C65.2803 14.9815 65.5357 14.9279 65.5967 15.1442C65.7034 15.5263 65.3826 15.9418 65.472 16.3284C65.5782 16.7904 66.0757 17.2585 66.1573 17.7254C66.2903 18.4825 66.1517 19.2066 66.1701 19.975C66.1869 20.6773 66.2612 21.3295 66.3534 22.0028C66.4105 22.4171 66.6396 23.0079 66.6502 23.309C66.6888 24.4307 66.7385 25.5351 66.7508 26.6581C66.7698 28.2994 66.7698 30.054 66.6877 31.6922C66.6782 31.8833 66.4501 31.9812 66.3831 32.1606C66.1288 32.8397 65.9158 33.2152 65.7526 33.9223C65.6665 34.2951 65.6637 34.6964 65.5033 35.044C65.405 35.2575 64.9662 35.4325 64.8919 35.6555C64.727 36.1518 64.9293 36.6509 64.893 37.2702C64.8623 37.8034 64.6415 38.1097 64.4196 38.6055C64.2676 38.9442 64.0205 39.4723 63.9266 39.8256C63.8243 40.209 64.0082 40.6293 63.8959 41.0099C63.8366 41.2089 63.565 41.305 63.522 41.5085C63.4141 42.0165 63.6153 42.571 63.4594 43.0662C63.3716 43.3467 63.3107 43.3059 63.043 43.4267C62.8529 43.5116 62.3544 43.6083 62.3259 43.4015C62.2051 42.5341 62.4494 41.9316 62.3119 41.0658C62.1509 40.053 61.7273 39.4371 61.4719 38.4434C61.3478 37.961 61.5697 37.0891 61.3405 36.647C60.928 35.8505 59.6073 35.5286 59.6649 34.6338C59.7202 33.768 60.2378 33.2046 60.7648 32.5004C61.1248 32.018 61.359 31.2305 61.5831 30.6811C61.748 30.2759 61.8441 29.8014 61.8513 29.4017C61.8625 28.8053 61.701 28.5457 61.2494 28.1747C60.3059 27.3994 58.7812 26.6905 57.6069 26.1196C57.4348 26.0359 57.233 26.3644 57.233 26.5558C57.233 26.7474 57.4571 26.8963 57.4795 27.0862C57.5449 27.6447 57.2067 28.2241 57.4488 28.7314C57.7042 29.2673 58.7119 29.4233 58.5627 29.9977C58.4621 30.3824 58.3676 30.5179 58.0412 30.7057C57.8434 30.8197 57.6237 30.8119 57.3923 30.8225C56.6981 30.8544 55.9844 30.6085 55.3137 30.7504C54.5854 30.9047 53.9337 31.2412 53.2608 31.5765C52.8153 31.799 52.3598 32.0924 51.8669 32.0773ZM58.006 23.3637C57.9999 22.8138 57.9864 22.2728 57.9876 21.732C57.9887 21.2545 58.0004 20.7771 58.0379 20.294C58.0624 19.98 58.3497 19.7405 58.3866 19.4279C58.4487 18.9111 58.1312 18.2909 58.276 17.7939C58.3341 17.5922 58.8455 17.7944 58.9612 17.6249C58.9992 17.5693 59.0769 17.2458 59.206 16.9699C59.2837 16.8044 59.4452 16.6559 59.4452 16.5925C59.4452 16.5001 59.4391 15.844 59.5084 15.2755C59.5486 14.9455 59.5995 14.6668 59.6498 14.6646C59.6995 14.6624 59.7498 14.936 59.9248 15.1636C60.126 15.4254 60.1942 15.6852 60.3702 15.9621C60.4742 16.1255 60.586 16.318 60.7575 16.3846C60.9761 16.4696 61.2377 16.35 61.4551 16.4378C61.6177 16.5033 61.6574 16.7586 61.8038 16.8602C61.9028 16.9291 62.1297 16.798 62.1526 16.9236C62.256 17.4895 62.1666 18.2469 62.2566 18.8153C62.2784 18.9516 62.5796 18.8882 62.5863 19.0266C62.6322 20.0166 62.6551 21.0081 62.6517 21.9998C62.6489 22.8748 62.626 23.75 62.5808 24.6243C62.5685 24.8735 61.91 24.891 61.7262 24.7511C61.3707 24.4802 61.1454 24.1659 60.6804 24.054C60.4865 24.0075 60.496 23.7003 60.3121 23.6391C59.9041 23.5032 59.3893 23.4693 58.9629 23.4693C58.6845 23.4693 58.2827 23.5675 58.006 23.5326C57.9552 23.5262 58.0066 23.4196 58.006 23.3637ZM71.2423 6.29972C71.2434 6.86931 71.3043 7.48647 71.306 8.08289C71.3088 8.85045 71.2529 9.53808 71.2557 10.3118C71.2585 11.1357 71.32 12.0458 71.32 12.8515C71.32 13.5065 71.2004 14.7654 71.2512 15.3094C71.3161 16.0088 71.3546 16.13 72.311 16.13C72.7737 16.13 73.4008 15.6553 73.8631 15.1756C74.1794 14.8472 74.1319 14.2803 74.2532 14.0351C74.432 13.6748 74.7378 13.3451 74.8015 12.9267C74.8831 12.3885 74.6864 11.9442 75.0452 11.6C75.1866 11.4638 75.3202 9.91855 75.3202 9.5785C75.3202 9.09381 74.811 8.37504 74.2258 7.73195C73.8256 7.29191 73.3455 6.89698 73.1409 6.59555C72.7659 6.04368 72.4853 5.80155 72.041 5.70229C71.2294 5.52103 71.2417 5.59554 71.2423 6.29972ZM66.9576 36.6302C66.8062 37.2283 67.2667 37.4725 67.8117 37.8246C68.3555 38.1768 68.9848 38.6373 69.5773 39.123C70.58 39.9446 71.2624 41.4442 71.9147 42.9209C72.2506 42.5637 72.0136 40.8993 72.202 39.9022C72.2422 39.6886 72.4725 39.5344 72.4943 39.3181C72.5714 38.5428 72.5904 37.7542 72.4943 36.9812C72.4579 36.6928 72.179 36.4821 72.1047 36.2021C72.046 35.9825 72.06 35.7427 72.1047 35.5202C72.1589 35.2486 72.3719 35.0172 72.3965 34.7411C72.4702 33.9329 72.5183 33.109 72.3965 32.307C72.3506 32.0041 71.8867 31.833 71.9096 31.5279C71.9292 31.2752 72.4753 31.2937 72.4943 31.0411C72.5474 30.3172 72.2964 29.6186 72.207 28.8986C72.0047 27.2801 71.8867 25.6521 71.7196 24.0297C71.6598 23.445 71.4262 22.8563 71.5251 22.2769C71.8297 21.4866 72.1081 20.6748 72.4015 20.0373C72.5446 19.8493 72.7335 20.2164 72.8788 20.4025C73.3533 21.0085 73.9838 21.7584 74.1202 22.5157C74.2873 23.4442 73.7843 24.2657 73.8916 25.2032C73.9229 25.4767 74.3443 25.4276 74.4415 25.6852C74.9066 26.9156 75.2844 28.1876 75.513 29.4829C75.7735 30.9589 75.8573 32.4641 75.9026 33.9625C75.9221 34.6142 75.8942 35.2849 75.7075 35.9098C75.4414 36.8024 74.887 37.5139 74.612 38.3763C74.3242 39.2784 74.2314 39.5478 75.186 39.5472C75.5638 39.5467 76.0048 39.5618 76.2966 39.7076C77.0779 40.0983 77.4005 40.9993 78.1421 41.4604C78.3025 41.5599 78.5121 41.6979 78.7329 41.8215C79.7848 42.4106 79.9005 42.0037 80.1196 41.0826C80.4085 39.8647 80.4818 38.7664 80.669 37.5653C80.7646 36.9561 80.7445 36.3312 80.7713 35.7153C80.8093 34.8372 80.8753 33.9636 80.83 33.0856C80.8093 32.6759 80.8115 32.2276 80.5427 31.9174C80.3409 31.6844 79.7457 31.9225 79.6663 31.6251C79.5573 31.2177 80.1453 30.8784 80.1531 30.4564C79.9922 29.318 79.8446 28.2992 79.8256 27.177C79.8038 25.8541 79.5204 26.52 79.0817 26.0015C78.8167 25.6882 78.734 25.4119 78.6927 25.0035C78.5703 23.8083 78.7435 22.4856 78.5608 21.2983C78.4792 20.7673 78.231 20.2436 77.8794 19.8376C77.752 19.6904 77.5184 19.9094 77.4312 19.7353C77.2853 19.4436 77.7336 19.2439 77.5625 18.9661C77.1652 18.3208 76.3335 17.8282 75.703 17.408C75.5141 17.2821 75.1816 17.5687 75.0211 17.408C74.8607 17.2474 74.8646 16.7543 75.0211 16.59C76.144 16.4274 76.7219 15.8987 77.2702 15.2658C78.0141 14.4077 78.378 13.4511 78.7508 12.3786C78.923 11.8842 78.7027 11.3065 78.7603 10.7864C78.8671 9.82398 79.3718 8.95 79.2035 7.99643C78.9593 6.6097 78.2757 5.367 77.4899 4.1987C77.0534 3.55013 76.3754 2.97528 75.6689 2.64066C75.0793 2.36142 74.5857 2.59505 73.9597 2.41189C73.2348 2.19984 72.6541 1.79434 71.9147 1.64276C71.339 1.52472 70.7348 1.76494 70.1619 1.63287C69.8042 1.55038 69.7461 1.14827 69.3828 1.09249C69.1324 1.05393 68.8764 1.41678 68.6238 1.43813C66.8771 1.58608 65.4435 1.24777 63.7053 1.47709C63.446 1.51135 63.5197 1.80059 63.7349 1.94938C64.0563 2.17177 64.5448 2.06194 64.9036 2.21715C65.5475 2.49617 66.0427 2.87125 66.52 3.38568C66.9152 3.81113 67.0761 4.28436 67.435 4.94372C67.5825 5.21401 68.0067 4.695 68.3119 4.65157C68.697 4.59657 68.9647 4.58623 69.2078 4.89023C69.4264 5.16293 68.9742 5.52635 68.7165 5.76159C68.1951 6.2369 67.8402 6.48863 67.3791 6.80419C67.0638 7.02022 66.5055 7.21416 66.2713 7.63614C65.7515 8.57233 66.368 9.63701 66.5681 10.689C66.6413 11.0727 66.7251 11.4478 66.8123 11.8284C67.0951 13.0658 67.0001 14.0956 67.1723 15.3532C67.2281 15.7597 67.5165 16.1139 67.5618 16.5218C67.6155 17.0066 67.5283 17.3637 67.6009 17.8461C67.6311 18.0514 67.7994 18.2691 67.8541 18.4693C68.0967 19.3598 68.3102 20.4782 68.341 21.4006C68.4404 24.4177 68.2616 27.3736 68.4136 30.3888C68.4276 30.6632 68.8395 30.7717 68.896 31.0411C68.9837 31.4586 68.7054 31.9381 68.5651 32.3411C67.9888 33.991 67.3131 35.2257 66.9576 36.6302Z" fill="white"/>
</svg>
